<svg xmlns="http://www.w3.org/2000/svg" xmlns:xlink="http://www.w3.org/1999/xlink" width="1080" zoomAndPan="magnify" viewBox="0 0 810 809.999993" height="1080" preserveAspectRatio="xMidYMid meet" version="1.0"><path fill="#ffffff" d="M 805.699219 376.867188 L 796.242188 350.210938 C 791.082031 335.59375 774.746094 323.554688 760.128906 323.554688 L 726.59375 323.554688 C 701.65625 253.90625 671.558594 169.636719 662.101562 149.859375 C 648.34375 118.90625 604.492188 105.148438 580.414062 98.269531 C 580.414062 98.269531 540 82.789062 405 82.789062 C 270 82.789062 230.445312 98.269531 230.445312 98.269531 C 202.070312 107.726562 162.515625 121.484375 147.039062 150.722656 C 139.300781 165.339844 108.34375 251.324219 83.40625 323.554688 L 50.734375 323.554688 C 36.113281 323.554688 19.777344 335.59375 14.617188 350.210938 L 5.160156 376.867188 C 0 391.484375 7.738281 403.523438 22.355469 403.523438 L 55.890625 403.523438 C 51.59375 415.5625 49.011719 422.441406 49.011719 422.441406 C 46.433594 426.738281 44.714844 446.515625 44.714844 452.535156 L 44.714844 695.878906 C 44.714844 711.359375 57.613281 724.257812 73.089844 724.257812 L 176.273438 724.257812 C 191.75 724.257812 204.648438 711.359375 204.648438 695.878906 L 204.648438 644.289062 L 606.210938 644.289062 L 606.210938 695.878906 C 606.210938 711.359375 619.109375 724.257812 634.585938 724.257812 L 738.628906 724.257812 C 754.109375 724.257812 767.007812 711.359375 767.007812 695.878906 L 767.007812 452.535156 C 767.007812 447.378906 765.285156 426.738281 762.707031 422.441406 C 762.707031 422.441406 760.128906 415.5625 755.828125 403.523438 L 788.503906 403.523438 C 802.261719 403.523438 810 391.484375 805.699219 376.867188 Z M 204.648438 526.484375 L 170.253906 503.269531 C 106.625 498.109375 98.886719 520.464844 85.128906 496.390625 L 85.128906 467.152344 C 85.128906 438.777344 101.464844 437.917969 119.523438 437.917969 C 136.71875 437.917969 171.113281 452.535156 194.332031 462.855469 C 219.265625 474.03125 237.324219 464.574219 246.785156 501.550781 C 245.921875 518.746094 236.464844 526.484375 204.648438 526.484375 Z M 144.457031 334.734375 C 165.957031 247.027344 202.070312 185.976562 207.230469 171.359375 C 210.667969 161.039062 202.070312 142.121094 405.859375 142.121094 C 609.648438 142.121094 598.472656 169.636719 599.332031 170.496094 C 608.789062 190.273438 646.625 254.765625 666.402344 334.734375 C 666.402344 334.734375 589.871094 345.050781 415.320312 345.050781 C 240.765625 345.050781 144.457031 334.734375 144.457031 334.734375 Z M 564.9375 501.550781 C 605.351562 451.675781 592.453125 474.03125 617.386719 462.855469 C 639.746094 452.535156 675 437.917969 692.199219 437.917969 C 710.253906 437.917969 726.59375 438.777344 726.59375 467.152344 L 726.59375 496.390625 C 713.695312 519.605469 702.515625 498.96875 638.023438 504.988281 L 606.210938 525.625 C 574.394531 526.484375 553.757812 514.445312 564.9375 501.550781 Z M 564.9375 501.550781 " fill-opacity="1" fill-rule="nonzero"/></svg>